<svg id="SvgjsSvg1001" width="288" height="288" xmlns="http://www.w3.org/2000/svg" version="1.1" xmlns:xlink="http://www.w3.org/1999/xlink" xmlns:svgjs="http://svgjs.com/svgjs"><defs id="SvgjsDefs1002"></defs><g id="SvgjsG1008"><svg xmlns="http://www.w3.org/2000/svg" viewBox="0 0 64 64" width="288" height="288"><path fill="#ba53de" d="M45.424 29.233a.998.998 0 0 0-1.4-.204L36.67 34.51a3.128 3.128 0 1 0 1.183 1.612l7.367-5.49a1 1 0 0 0 .204-1.399ZM42 11.965V9a3.003 3.003 0 0 0-3-3V4a3.003 3.003 0 0 0-3-3h-2a3.003 3.003 0 0 0-3 3v2a3.003 3.003 0 0 0-3 3v2.993A26.181 26.181 0 0 0 11.012 27H6a1 1 0 0 0 0 2h10a1 1 0 0 0 0-2h-2.811a24.001 24.001 0 1 1-.016 19.965A.986.986 0 0 0 14 46a1 1 0 0 0-1-1H5a1 1 0 0 0 0 2h6.012A25.994 25.994 0 1 0 42 11.965ZM33 4a1 1 0 0 1 1-1h2a1 1 0 0 1 1 1v2h-4Zm7 7.487A26.018 26.018 0 0 0 35 11a25.57 25.57 0 0 0-5 .512V9a1 1 0 0 1 1-1h8a1 1 0 0 1 1 1ZM17 45h8a1 1 0 0 1 0 2h-2.488A15.888 15.888 0 0 0 34 52.968V50a1 1 0 0 1 2 0v2.95A15.997 15.997 0 0 0 50.95 38H48a1 1 0 0 1 0-2h2.95A15.997 15.997 0 0 0 36 21.05V24a1 1 0 0 1-2 0v-2.968A15.888 15.888 0 0 0 22.512 27H26a1 1 0 0 1 0 2h-6a1 1 0 0 1 0-2h.042a18 18 0 1 1 0 20H17a1 1 0 0 1 0-2ZM4 41a1 1 0 0 1 0-2h12a1 1 0 0 1 0 2Zm11-8h9a1 1 0 0 1 0 2h-9a1 1 0 0 1 0-2ZM4 34a1 1 0 0 1 1-1h6a1 1 0 0 1 0 2H5a1 1 0 0 1-1-1Zm16 7a1 1 0 0 1 0-2h3a1 1 0 0 1 0 2Z" data-name="Layer 2" class="color231f20 svgShape"></path></svg></g></svg>